<svg width="23" height="33" viewBox="0 0 23 33" fill="none" xmlns="http://www.w3.org/2000/svg">
<g id="caduceus">
<path id="Combined Shape" fill-rule="evenodd" clip-rule="evenodd" d="M16.769 1.5135H22.122C22.122 1.5135 22.3256 9.48383 16.769 9.48383C15.7364 9.48383 14.8245 8.81531 14.2715 7.79311C14.0508 7.38465 13.6025 7.33284 13.3344 7.6895L12.1866 9.21482V14.3726L10.6591 15.0252V4.23337C10.2031 3.88865 9.89535 3.24705 9.89535 2.50978C9.89535 1.37402 10.6239 0.459418 11.5061 0.520198C12.295 0.573995 12.9335 1.43578 12.9503 2.46596C12.9625 3.22113 12.6517 3.88167 12.1866 4.23337V5.90614L14.4877 2.84753V2.84952C15.0475 2.02959 15.8616 1.5135 16.769 1.5135ZM8.56668 7.76816C8.78862 7.35817 9.23942 7.30718 9.509 7.66417L9.89529 8.17715V4.85629L8.34937 2.80537V2.80636C7.78645 1.98441 6.96778 1.46643 6.05548 1.46643H0.672775C0.672775 1.46643 0.996863 9.46609 6.05548 9.46609C7.09373 9.46609 8.01069 8.7951 8.56668 7.76816ZM9.03994 15.7625L9.03147 15.7665C8.38596 16.0512 7.81746 16.4449 7.34043 16.9234C6.33027 15.8824 6.16485 14.6835 6.16485 14.0121C6.16485 13.062 6.32951 12.1578 7.10116 11.2926C7.90821 10.3625 8.95837 10.3076 9.34232 11.1248C9.69543 11.8761 9.34999 13.077 8.57138 13.8083C8.30059 14.0621 8.01359 14.2239 7.73897 14.2979C7.83436 14.6985 8.1244 15.1061 8.56679 15.4498C8.72293 15.5707 8.84988 15.6596 9.03994 15.7625ZM13.5524 11.5577C13.9213 10.5663 14.9314 10.6353 15.7064 11.761C16.4488 12.8093 16.6063 13.9048 16.6085 15.0572C16.6085 15.9869 16.4015 17.7505 15.0121 19.1099C14.6948 19.4198 14.456 19.6074 13.9812 19.8871C14.9972 20.7271 15.5851 22.0538 15.5851 23.5681C15.5851 25.7603 14.4715 27.0132 13.213 27.7576C13.8356 28.4876 14.1639 29.4402 14.1639 30.4219C14.1639 31.0599 14.1151 31.7293 13.4866 32.5088L13.4858 32.5076C13.4489 32.556 13.403 32.5863 13.352 32.5863C13.2337 32.5863 13.1375 32.4289 13.1375 32.2352C13.1375 32.1711 13.1487 32.1118 13.1671 32.0597L13.1664 32.0585C13.6418 30.7524 13.1072 29.9281 12.2576 29.3446V31.3746C12.2576 32.0428 11.9263 32.5851 11.5182 32.5851C11.11 32.5851 10.7787 32.0428 10.7787 31.3746V29.3434C9.89436 29.951 9.43887 30.6531 9.86775 32.0585C9.88622 32.1106 9.89732 32.1699 9.89732 32.234C9.89732 32.4277 9.80118 32.5851 9.68286 32.5851C9.63187 32.5851 9.58527 32.5548 9.54829 32.5064L9.54756 32.5076C8.89835 31.7619 8.85543 31.0115 8.85543 30.4062C8.85543 29.3519 9.18971 28.4549 9.81155 27.7492C10.1099 27.4123 10.2924 27.2798 11.0444 26.734L11.0456 26.7331L11.0465 26.7325C11.1829 26.6335 11.338 26.5209 11.516 26.391C11.7855 26.1941 12.0293 26.0193 12.2493 25.8615L12.2496 25.8612C13.673 24.8404 14.104 24.5313 14.104 23.5657C14.104 23.1058 13.7032 22.4182 12.9387 21.9921C12.7603 21.8945 12.5897 21.8022 12.4262 21.7137L12.4259 21.7136L12.2561 21.6217V23.1651L10.7773 24.2448V21.6205C10.5621 21.7367 10.3343 21.8602 10.0925 21.9921C9.32796 22.417 8.92715 23.1058 8.92715 23.5657C8.92715 24.194 9.10759 24.5607 9.69249 25.045C9.18449 25.4529 8.7497 25.9625 8.40141 26.5496C7.84757 25.8281 7.44905 24.8428 7.44905 23.5657C7.44905 21.773 8.27279 20.2429 9.65698 19.4731C10.6479 18.9344 11.4021 18.5301 11.9877 18.2178C13.6958 17.3039 13.8962 17.1901 14.2977 16.7979C14.7229 16.3815 15.0017 15.8876 15.0934 15.4022C14.8294 15.3126 14.5536 15.1165 14.2933 14.8091C13.545 13.923 13.2137 12.468 13.5524 11.5577Z" fill="url(#paint0_linear_102_4)"/>
</g>
<defs>
<linearGradient id="paint0_linear_102_4" x1="17.184" y1="-12.4546" x2="-7.71883" y2="-12.4546" gradientUnits="userSpaceOnUse">
<stop stop-color="#1A4FBA"/>
<stop offset="0.286458" stop-color="#F3C294"/>
<stop offset="1" stop-color="#F4FAFF"/>
</linearGradient>
</defs>
</svg>
